<svg width="128" height="128" viewBox="0 0 128 128" fill="none" xmlns="http://www.w3.org/2000/svg">
  <rect width="128" height="128" rx="20" fill="#02569B"/>
  <!-- Puzzle Piece 1 -->
  <path d="M28 28h24v8a4 4 0 008 0v-8h24v24h-8a4 4 0 000 8h8v24H60v-8a4 4 0 00-8 0v8H28V60h8a4 4 0 000-8h-8V28z" fill="#F7F7F7"/>
  <!-- Puzzle Piece 2 -->
  <path d="M76 76h24v8a4 4 0 008 0v-8h24v24h-8a4 4 0 000 8h8v24H108v-8a4 4 0 00-8 0v8H76V108h8a4 4 0 000-8h-8V76z" fill="#F7F7F7" opacity="0.5"/>
  <!-- Flutter-style "F" -->
  <path d="M40 88L88 40L76 28L28 76L40 88Z" fill="#42A5F5"/>
  <path d="M60 108L88 80L76 68L48 96L60 108Z" fill="#42A5F5"/>
</svg>
